<?xml version="1.0" encoding="UTF-8" standalone="no"?>
<!-- Created with Inkscape (http://www.inkscape.org/) -->

<svg
   xmlns:dc="http://purl.org/dc/elements/1.1/"
   xmlns:cc="http://creativecommons.org/ns#"
   xmlns:rdf="http://www.w3.org/1999/02/22-rdf-syntax-ns#"
   xmlns:svg="http://www.w3.org/2000/svg"
   xmlns="http://www.w3.org/2000/svg"
   xmlns:sodipodi="http://sodipodi.sourceforge.net/DTD/sodipodi-0.dtd"
   xmlns:inkscape="http://www.inkscape.org/namespaces/inkscape"
   width="367.14001"
   height="367.13998"
   viewBox="0 0 367.14001 367.13998"
   version="1.1"
   id="svg2216"
   inkscape:version="0.92.3 (2405546, 2018-03-11)"
   sodipodi:docname="circle.svg">
  <defs
     id="defs2210" />
  <sodipodi:namedview
     id="base"
     pagecolor="#ffffff"
     bordercolor="#666666"
     borderopacity="1.0"
     inkscape:pageopacity="0.0"
     inkscape:pageshadow="2"
     inkscape:zoom="1.4"
     inkscape:cx="128.40776"
     inkscape:cy="196.06567"
     inkscape:document-units="px"
     inkscape:current-layer="layer1"
     showgrid="false"
     units="px"
     inkscape:window-width="1280"
     inkscape:window-height="737"
     inkscape:window-x="-8"
     inkscape:window-y="-8"
     inkscape:window-maximized="1"
     fit-margin-top="10"
     fit-margin-left="10"
     fit-margin-bottom="10"
     fit-margin-right="10"
     inkscape:showpageshadow="false"
     scale-x="1" />
  <metadata
     id="metadata2213">
    <rdf:RDF>
      <cc:Work
         rdf:about="">
        <dc:format>image/svg+xml</dc:format>
        <dc:type
           rdf:resource="http://purl.org/dc/dcmitype/StillImage" />
        <dc:title></dc:title>
      </cc:Work>
    </rdf:RDF>
  </metadata>
  <g
     inkscape:label="Layer 1"
     inkscape:groupmode="layer"
     id="layer1"
     transform="translate(283.10502,-116.23671)">
    

<g
       aria-label="a"
       style="font-style:normal;font-variant:normal;font-weight:normal;font-stretch:normal;font-size:5.33333349px;line-height:1.25;font-family:'Open Sans';-inkscape-font-specification:'Open Sans, Normal';font-variant-ligatures:normal;font-variant-caps:normal;font-variant-numeric:normal;font-feature-settings:normal;text-align:start;letter-spacing:0px;word-spacing:0px;writing-mode:lr-tb;text-anchor:start;fill:#000000;fill-opacity:1;stroke:none"
       id="text824">
      <path
         d="m -143.77561,285.44837 c -16.22179,-0.42318 -60.17005,-1.199 -63.27334,-2.32747 5.07812,-26.80122 17.14741,-69.75341 63.3484,-80.36925 1.83376,1.6927 0.98288,26.62576 0.98288,30.85753 0.14106,1.26953 0.0705,3.10329 -0.21159,5.5013 -0.14106,2.53906 -0.21159,4.37283 -0.21159,5.5013 0,24.96745 -0.21159,38.57964 -0.63476,40.83659 z m 30.6143,-125.32412 c -39.47978,2.12066 -78.17525,29.87577 -94.14702,49.65732 -18.05556,24.54427 -29.76799,50.2466 -31.60175,77.61205 -2.53906,36.95747 7.34987,68.27968 28.50873,98.04313 7.33506,10.43837 12.97742,13.58073 17.81994,17.4628 -0.95493,-16.21 -0.96621,-27.83469 -1.56064,-43.60678 -0.42318,-1.83377 -3.31489,-8.6046 -8.67513,-20.3125 -4.09072,-8.6046 -5.21919,-16.0102 -3.38542,-22.21679 13.96484,-1.55165 57.63098,-1.55165 62.42699,0 0.56423,12.13107 0.84635,29.4108 0.84635,51.83919 0.14106,24.96745 -0.6575,52.48977 -0.37538,62.3639 12.07987,6.19069 21.20775,4.47986 29.53023,6.73681 0.7053,-34.55946 0.60861,-80.66755 0.46755,-136.80905 -0.14106,-74.90234 0.14555,-124.26617 0.14555,-140.77008 z"
         style="font-style:normal;font-variant:normal;font-weight:normal;font-stretch:normal;font-size:433.33334351px;font-family:'MONOGRAMOS left';-inkscape-font-specification:'MONOGRAMOS left';fill:#a0a0a0;fill-opacity:1"
         id="path822"
         inkscape:connector-curvature="0"
         sodipodi:nodetypes="cccccsccccccccccccccc" />
    </g>



<g
       aria-label="c"
       style="font-style:normal;font-variant:normal;font-weight:normal;font-stretch:normal;font-size:5.33333349px;line-height:1.25;font-family:'Open Sans';-inkscape-font-specification:'Open Sans, Normal';font-variant-ligatures:normal;font-variant-caps:normal;font-variant-numeric:normal;font-feature-settings:normal;text-align:start;letter-spacing:0px;word-spacing:0px;writing-mode:lr-tb;text-anchor:start;fill:#a0a0a0;fill-opacity:1;stroke:none"
       id="text828"
       transform="translate(22.142862)">
      <path
         d="m -24.975396,345.41405 c 0.705295,-1.12847 -2.327475,4.86654 -9.098308,17.98503 -3.667535,7.19401 -23.008249,26.68955 -45.340867,31.71757 -0.564236,-15.79861 -0.846354,-80.73559 -0.846354,-155.92005 0,-0.84635 -0.07053,-2.398 -0.211589,-4.65495 -0.141059,-1.97483 -0.211588,-3.52648 -0.211588,-4.65495 0.141059,-3.66753 0.300328,-19.04509 1.993037,-20.87886 20.58759,-4.64348 41.020356,20.17357 44.82895,27.22652 4.231771,8.04037 7.476128,13.25955 9.733073,15.65755 14.388021,1.83377 26.2119287,1.62218 31.4311128,-0.63476 C -8.2303215,208.0635 -50.281541,167.40393 -109.4533,159.96182 c -0.0644,91.59378 0.41633,186.41984 0.41633,277.13829 50.979067,-1.67922 102.9088531,-46.63592 116.5915789,-90.92845 -10.0151912,-1.55165 -22.3737549,-2.30926 -32.5300049,-0.75761 z"
         style="font-style:normal;font-variant:normal;font-weight:normal;font-stretch:normal;font-size:433.33334351px;font-family:'MONOGRAMOS right';-inkscape-font-specification:'MONOGRAMOS right';fill:#a0a0a0;fill-opacity:1"
         id="path822"
         inkscape:connector-curvature="0"
         sodipodi:nodetypes="cccscccccccccc" />
    </g>




    <path
       style="fill:#000000;fill-opacity:1;fill-rule:evenodd;stroke-width:1.06112659"
       d="m -99.535018,126.23671 a 173.57001,173.57001 0 0 0 -173.570002,173.56998 173.57001,173.57001 0 0 0 173.570002,173.56999 173.57001,173.57001 0 0 0 173.57,-173.56999 173.57001,173.57001 0 0 0 -173.57,-173.56998 z m 0,10.84808 A 162.72188,162.72188 0 0 1 63.186852,299.80669 162.72188,162.72188 0 0 1 -99.535018,462.52856 162.72188,162.72188 0 0 1 -262.25689,299.80669 162.72188,162.72188 0 0 1 -99.535018,137.08479 Z"
       id="path12"
       inkscape:connector-curvature="0" />
  </g>
</svg>
